:SAMPLES-PER-SECOND 30
:FULLY-SPECIFIED
:DEGREES
645
root  45.8884 39.6125 -48.1012 15.9109 -2.9372 2.2157
RightUpLeg  -33.0507 -13.1788 1.91027
RightLeg  12.546 -15.3009 2.18105
RightFoot  1.66744 0.649784 -5.59132
RightToes  5.82063e-011 0 -3.6325e-017
Spine  63.1746 -5.93427 6.63222
Spine1  14.9067 0.239294 -6.21516
HEad  -40.7545 -2.87143 6.9699
LeftShoulder1  11.4415 -21.6864 -39.1331
LeftArm  -17.1201 -39.8558 -23.8717
LeftForeArm  85.3417 -61.2084 -13.0626
LeftHand  -0.244104 0.0205437 5.32207
RightShoulder  8.43885 16.687 35.7709
RightArm  -22.5405 40.3693 7.31465
RightForeArm  44.8216 57.3055 13.5596
RightHand  -13.1263 27.2361 -44.4783
LeftUpLeg  -31.4562 6.66132 -3.24763
LeftLeg  10.3635 7.53938 -2.06656
LeftFoot  4.40803 -0.431734 2.92744
LeftToes  1.45487e-011 -6.19069e-011 1.65092e-011
646
root  45.8962 39.4221 -48.1467 16.8079 -3.05156 2.28076
RightUpLeg  -36.1812 -16.812 4.95833
RightLeg  15.2507 -10.6817 0.891838
RightFoot  0.535556 0.556408 -5.3038
RightToes  5.82063e-011 0 -3.6325e-017
Spine  63.5005 -5.76354 6.08379
Spine1  15.0336 -0.0330798 -6.10848
HEad  -42.3383 -2.07149 7.19974
LeftShoulder1  11.514 -21.7671 -39.267
LeftArm  -16.0139 -44.2727 -20.2642
LeftForeArm  89.9397 -62.5968 -13.7733
LeftHand  -0.244104 0.0205437 5.32207
RightShoulder  7.95035 16.8808 33.0074
RightArm  -22.3215 43.1387 7.32492
RightForeArm  47.1831 56.4192 12.8391
RightHand  -12.6179 26.727 -43.5494
LeftUpLeg  -34.1666 9.29109 -5.56528
LeftLeg  13.1187 4.18206 -0.920854
LeftFoot  3.34752 -0.392315 2.88607
LeftToes  1.45487e-011 -6.19069e-011 1.65092e-011
647
root  45.8902 39.2141 -48.1741 17.7113 -3.32017 2.34808
RightUpLeg  -39.5676 -20.3904 8.51918
RightLeg  17.8428 -5.62167 -0.185191
RightFoot  -1.01127 0.409198 -4.59068
RightToes  5.82063e-011 0 -3.6325e-017
Spine  63.9321 -5.34836 5.63802
Spine1  15.1128 0.0320538 -5.90294
HEad  -44.1942 -1.7563 7.60784
LeftShoulder1  11.6961 -22.0641 -39.4354
LeftArm  -14.97 -49.0077 -16.395
LeftForeArm  89.9576 -61.8137 -13.2751
LeftHand  -0.244104 0.0205437 5.32207
RightShoulder  7.62903 17.113 30.9969
RightArm  -23.2671 45.122 6.21641
RightForeArm  48.2222 56.0366 12.5393
RightHand  -12.8786 27.0962 -43.89
LeftUpLeg  -36.9372 11.5021 -7.769
LeftLeg  15.908 1.53138 0.0865282
LeftFoot  1.97642 -0.325542 2.68427
LeftToes  1.45487e-011 -6.19069e-011 1.65092e-011
648
root  45.888 39.0014 -48.1784 18.6347 -3.56313 2.40463
RightUpLeg  -42.5768 -22.2161 11.0205
RightLeg  20.2207 -2.47479 -0.945715
RightFoot  -2.75566 0.244567 -3.50204
RightToes  5.82063e-011 0 -3.6325e-017
Spine  64.4746 -4.82602 5.40442
Spine1  14.9863 0.300347 -5.41601
HEad  -45.9975 -2.09441 7.66411
LeftShoulder1  12.0168 -22.5175 -39.8405
LeftArm  -14.4253 -52.5406 -12.7896
LeftForeArm  89.2246 -60.6131 -12.5457
LeftHand  -0.244104 0.0205437 5.32207
RightShoulder  7.39618 17.2486 29.6098
RightArm  -25.2121 46.0089 4.21963
RightForeArm  48.9734 56.9642 13.0025
RightHand  -14.4488 28.9363 -46.2598
LeftUpLeg  -39.3928 11.9589 -8.7334
LeftLeg  18.4903 0.882753 0.707847
LeftFoot  0.482184 -0.226501 2.15542
LeftToes  1.45487e-011 -6.19069e-011 1.65092e-011
649
root  45.9035 38.7905 -48.1509 19.6416 -3.5903 2.42639
RightUpLeg  -44.8048 -22.0054 11.5357
RightLeg  22.4493 -2.24422 -1.28296
RightFoot  -4.49332 0.103179 -2.23313
RightToes  5.82063e-011 0 -3.6325e-017
Spine  65.0575 -4.43629 5.36181
Spine1  14.6874 0.45603 -4.64894
HEad  -47.6592 -2.66274 7.2218
LeftShoulder1  12.3222 -22.8163 -40.4384
LeftArm  -15.2344 -53.8414 -9.9259
LeftForeArm  91.518 -61.0356 -12.7321
LeftHand  -0.244104 0.0205437 5.32207
RightShoulder  7.10215 17.1694 28.2947
RightArm  -27.6301 46.0314 2.81673
RightForeArm  51.3948 59.0427 14.0585
RightHand  -17.0528 31.8268 -49.8172
LeftUpLeg  -41.5259 10.8712 -8.48646
LeftLeg  20.9005 1.81244 1.09907
LeftFoot  -1.24835 -0.116848 1.40445
LeftToes  1.45487e-011 -6.19069e-011 1.65092e-011
650
root  45.9342 38.5923 -48.084 20.7849 -3.46022 2.37445
RightUpLeg  -46.8578 -21.7581 11.7929
RightLeg  24.4532 -2.36566 -1.40074
RightFoot  -6.31417 -0.0103647 -0.723798
RightToes  5.82063e-011 0 -3.6325e-017
Spine  65.4606 -4.16054 5.38237
Spine1  14.6349 0.431913 -3.68328
HEad  -49.3898 -2.96842 6.66316
LeftShoulder1  12.4742 -22.8651 -40.8991
LeftArm  -17.8351 -53.757 -7.69253
LeftForeArm  95.8117 -63.0694 -13.91
LeftHand  -0.244104 0.0205437 5.32207
RightShoulder  6.72117 16.9411 26.7705
RightArm  -30.2333 45.786 2.35512
RightForeArm  55.139 61.381 15.3236
RightHand  -20.2321 34.9967 -53.7617
LeftUpLeg  -43.6749 10.0208 -8.33073
LeftLeg  23.2609 2.8571 1.68219
LeftFoot  -3.4332 -0.0393895 0.876718
LeftToes  1.45487e-011 -6.19069e-011 1.65092e-011
651
root  45.9695 38.43 -47.9874 22.0005 -3.4095 2.2348
RightUpLeg  -48.626 -21.4967 12.0863
RightLeg  25.9643 -2.2637 -1.43056
RightFoot  -8.26171 -0.0875764 1.19504
RightToes  5.82063e-011 0 -3.6325e-017
Spine  65.6311 -3.8861 5.38541
Spine1  15.0786 0.464608 -2.84986
HEad  -51.2419 -3.02646 6.37918
LeftShoulder1  12.4901 -22.9204 -40.8618
LeftArm  -21.7379 -53.7416 -5.54528
LeftForeArm  99.4109 -65.3851 -15.5206
LeftHand  -0.244104 0.0205437 5.32207
RightShoulder  6.41431 16.786 25.4646
RightArm  -32.795 45.7693 1.73684
RightForeArm  57.9939 63.2306 16.5029
RightHand  -24.0699 38.1484 -58.4066
LeftUpLeg  -45.7568 10.0428 -8.53482
LeftLeg  25.4801 4.31592 2.57902
LeftFoot  -5.83607 -0.00392782 0.826084
LeftToes  1.45487e-011 -6.19069e-011 1.65092e-011
